HIERARCHY
ROOT Hips
{
	OFFSET 0.000000 0.000000 0.000000
	CHANNELS 6 Xposition Yposition Zposition Xrotation Yrotation Zrotation
	JOINT LeftUpLeg_virtual
	{
		OFFSET 0.000000 0.000000 0.000000
		CHANNELS 3 Xrotation Yrotation Zrotation
		JOINT LeftUpLeg
		{
			OFFSET 15.427100 -6.655098 0.678600
			CHANNELS 3 Xrotation Yrotation Zrotation
			JOINT LeftLeg
			{
				OFFSET 4.081073 -39.591068 13.024000
				CHANNELS 3 Xrotation Yrotation Zrotation
				JOINT LeftFoot
				{
					OFFSET -4.081074 -37.707932 -15.979700
					CHANNELS 3 Xrotation Yrotation Zrotation
					JOINT LeftToeBase
					{
						OFFSET 5.346399 -15.068900 20.645000
						CHANNELS 3 Xrotation Yrotation Zrotation
						JOINT LeftToe_End
						{
							OFFSET 2.754700 0.931300 11.300900
							CHANNELS 3 Xrotation Yrotation Zrotation
							End Site
							{
								OFFSET 0 0 0
							}
						}
					}
				}
			}
		}
	}
	JOINT RightUpLeg_virtual
	{
		OFFSET 0.000000 0.000000 0.000000
		CHANNELS 3 Xrotation Yrotation Zrotation
		JOINT RightUpLeg
		{
			OFFSET -15.569500 -6.655098 0.678600
			CHANNELS 3 Xrotation Yrotation Zrotation
			JOINT RightLeg
			{
				OFFSET -4.081825 -39.591045 13.023800
				CHANNELS 3 Xrotation Yrotation Zrotation
				JOINT RightFoot
				{
					OFFSET 4.081824 -37.707954 -15.979600
					CHANNELS 3 Xrotation Yrotation Zrotation
					JOINT RightToeBase
					{
						OFFSET -5.346400 -15.068900 20.645000
						CHANNELS 3 Xrotation Yrotation Zrotation
						JOINT RightToe_End
						{
							OFFSET -2.754700 0.931300 11.300900
							CHANNELS 3 Xrotation Yrotation Zrotation
							End Site
							{
								OFFSET 0 0 0
							}
						}
					}
				}
			}
		}
	}
	JOINT Spine_virtual
	{
		OFFSET 0.000000 0.000000 0.000000
		CHANNELS 3 Xrotation Yrotation Zrotation
		JOINT Spine
		{
			OFFSET -0.279200 12.230698 -2.892100
			CHANNELS 3 Xrotation Yrotation Zrotation
			JOINT Spine1
			{
				OFFSET -0.232667 10.192268 -1.242267
				CHANNELS 3 Xrotation Yrotation Zrotation
				JOINT Spine1_split
				{
					OFFSET -0.232667 10.192268 -1.242267
					CHANNELS 3 Xrotation Yrotation Zrotation
					JOINT Spine2
					{
						OFFSET -0.232667 10.192268 -1.242267
						CHANNELS 3 Xrotation Yrotation Zrotation
						JOINT Neck_virtual
						{
							OFFSET 0.000000 0.000000 0.000000
							CHANNELS 3 Xrotation Yrotation Zrotation
							JOINT Neck
							{
								OFFSET -0.418800 17.814194 8.416900
								CHANNELS 3 Xrotation Yrotation Zrotation
								JOINT Head
								{
									OFFSET 0.000000 7.031097 3.806800
									CHANNELS 3 Xrotation Yrotation Zrotation
									JOINT HeadTop_End
									{
										OFFSET 0.000000 24.646606 12.978600
										CHANNELS 3 Xrotation Yrotation Zrotation
										End Site
										{
											OFFSET 0 0 0
										}
									}
								}
							}
						}
						JOINT LeftShoulder_virtual
						{
							OFFSET 0.000000 0.000000 0.000000
							CHANNELS 3 Xrotation Yrotation Zrotation
							JOINT LeftShoulder
							{
								OFFSET 8.476499 7.247704 -3.868750
								CHANNELS 3 Xrotation Yrotation Zrotation
								JOINT LeftShoulder_split
								{
									OFFSET 8.476499 7.247704 -3.868750
									CHANNELS 3 Xrotation Yrotation Zrotation
									JOINT LeftArm
									{
										OFFSET 9.308998 -2.777710 0.208600
										CHANNELS 3 Xrotation Yrotation Zrotation
										JOINT LeftForeArm
										{
											OFFSET 29.972298 0.000000 0.000000
											CHANNELS 3 Xrotation Yrotation Zrotation
											JOINT LeftHand
											{
												OFFSET 26.026505 0.000000 0.000000
												CHANNELS 3 Xrotation Yrotation Zrotation
												End Site
												{
													OFFSET 0 0 0
												}
											}
										}
									}
								}
							}
						}
						JOINT RightShoulder_virtual
						{
							OFFSET 0.000000 0.000000 0.000000
							CHANNELS 3 Xrotation Yrotation Zrotation
							JOINT RightShoulder
							{
								OFFSET -7.570500 7.247704 -3.868750
								CHANNELS 3 Xrotation Yrotation Zrotation
								JOINT RightShoulder_split
								{
									OFFSET -7.570500 7.247704 -3.868750
									CHANNELS 3 Xrotation Yrotation Zrotation
									JOINT RightArm
									{
										OFFSET -9.308998 -2.777710 0.208500
										CHANNELS 3 Xrotation Yrotation Zrotation
										JOINT RightForeArm
										{
											OFFSET -29.972300 0.000000 0.000000
											CHANNELS 3 Xrotation Yrotation Zrotation
											JOINT RightHand
											{
												OFFSET -26.026505 0.000000 0.000000
												CHANNELS 3 Xrotation Yrotation Zrotation
												End Site
												{
													OFFSET 0 0 0
												}
											}
										}
									}
								}
							}
						}
					}
				}
			}
		}
	}
}
MOTION
Frames: 11
Frame Time: 0.03333333
-249.319855 95.076790 -12.954258 0.000000 0.000000 0.000000 2.603219 0.765593 0.546435 -11.730747 18.987198 12.694124 14.163113 -6.700611 1.903149 -6.537683 -14.913218 -3.649051 -1.450978 -0.187574 1.484320 0.000000 0.000000 0.000000 1.360994 3.412949 0.091503 -3.628856 -6.244526 -16.756131 13.223543 -1.731024 8.204508 -1.040650 -2.758438 4.722659 -8.504874 -0.019476 -0.849508 0.000000 0.000000 0.000000 3.200891 1.305944 -0.157970 0.740223 1.365260 1.162858 2.445061 0.901733 0.438900 0.805888 -1.947511 0.188696 0.000000 0.000000 0.000000 1.861753 0.565913 0.492812 3.535009 -0.449834 -1.553555 -7.411022 -6.153305 1.423384 0.000000 0.000000 0.000000 0.659336 0.467919 0.160999 0.802118 -0.961987 -10.428919 -2.389513 -0.880581 0.196813 8.293324 -17.378272 -62.807414 -0.372097 -21.947998 0.328052 0.000000 0.000000 0.000000 1.382140 0.617460 0.904885 0.636535 5.251001 13.740028 1.637582 3.106795 -3.102913 12.691711 8.514033 63.591479 1.049293 31.214811 0.397097 0.000000 0.000000 0.000000 
-249.160782 95.014389 -12.913811 0.000000 0.000000 0.000000 2.351136 0.878102 0.424961 -11.945022 19.116946 12.689035 14.340274 -6.832936 2.190703 -6.114235 -14.968710 -3.284568 -1.543161 -0.219721 1.341619 0.000000 0.000000 0.000000 1.125239 3.459740 -0.034962 -3.534031 -6.152273 -16.539144 13.465552 -1.533151 8.089942 -1.458370 -2.613663 4.840893 -8.544983 0.023067 -0.991326 0.000000 0.000000 0.000000 2.940146 1.308197 -0.186372 0.785261 1.394450 1.318679 2.533361 0.967712 0.447069 0.841435 -1.781109 0.195635 0.000000 0.000000 0.000000 1.748403 0.591193 0.534094 3.344301 -0.496261 -1.733456 -7.904388 -6.512123 1.509188 0.000000 0.000000 0.000000 0.660267 0.525083 0.162919 0.844051 -0.223740 -10.001764 -2.312060 -1.030363 0.367521 8.119220 -17.598746 -62.367714 -0.721625 -24.997063 0.196856 0.000000 0.000000 0.000000 1.442154 0.681842 0.909297 0.665256 5.107037 13.499289 1.553051 3.103914 -2.943642 13.155712 9.826031 61.921068 0.912960 34.289927 0.451278 0.000000 0.000000 0.000000 
-248.978851 95.053024 -12.839302 0.000000 0.000000 0.000000 2.100792 0.897583 0.354785 -12.177048 19.074985 12.606326 14.642242 -6.940507 2.464175 -5.287749 -15.140870 -2.951241 -1.835691 -0.274168 1.312370 0.000000 0.000000 0.000000 0.893434 3.449468 -0.091402 -3.397778 -6.072191 -16.255246 13.581894 -1.376151 7.832576 -1.963311 -2.457946 5.002270 -8.455791 0.079013 -1.106710 0.000000 0.000000 0.000000 2.730760 1.257298 -0.166788 0.753040 1.460697 1.459096 2.610904 1.082924 0.455285 0.928395 -1.626958 0.220018 0.000000 0.000000 0.000000 1.619611 0.673324 0.577682 3.336467 -0.560544 -1.894886 -8.374931 -6.872848 1.619737 0.000000 0.000000 0.000000 0.683807 0.639877 0.200034 0.844722 0.692030 -9.245847 -2.119119 -1.098171 0.473063 7.789072 -17.116126 -62.068402 -1.217707 -31.034693 -0.094041 0.000000 0.000000 0.000000 1.477441 0.795633 0.907575 0.714584 4.774723 12.982132 1.623907 3.138715 -2.648225 13.575775 10.888137 59.935552 0.795833 39.970984 0.407553 0.000000 0.000000 0.000000 
-248.822113 95.202652 -12.824348 0.000000 0.000000 0.000000 1.925151 0.915646 0.361622 -12.456995 18.815464 12.390928 15.059505 -6.955510 2.748282 -4.291942 -15.362238 -2.507485 -2.107014 -0.367894 1.494938 0.000000 0.000000 0.000000 0.717069 3.340625 -0.074839 -3.224156 -5.974548 -15.924443 13.513537 -1.265494 7.442516 -2.368701 -2.307497 5.273194 -8.180685 0.143016 -1.182341 0.000000 0.000000 0.000000 2.665145 1.131247 -0.089631 0.621057 1.540634 1.571619 2.659864 1.234019 0.444957 1.035169 -1.451987 0.200772 0.000000 0.000000 0.000000 1.508999 0.792051 0.594377 3.538228 -0.611934 -2.013272 -8.789032 -7.135701 1.784865 0.000000 0.000000 0.000000 0.721747 0.788926 0.248776 0.789462 1.664381 -8.301755 -1.867969 -1.060460 0.639702 6.982737 -15.921752 -62.041497 -1.757044 -39.613352 -0.565871 0.000000 0.000000 0.000000 1.481674 0.943878 0.878847 0.763595 4.264299 12.151292 1.763647 3.172097 -2.240787 13.584610 11.404299 57.951088 0.714567 48.047987 0.248012 0.000000 0.000000 0.000000 
-248.684113 95.395096 -12.936333 0.000000 0.000000 0.000000 1.921107 0.972037 0.414730 -12.893735 18.397859 11.994133 15.596785 -6.913605 3.001784 -3.448393 -15.541216 -1.929482 -2.209009 -0.519625 1.881914 0.000000 0.000000 0.000000 0.687545 3.163879 0.011443 -3.207860 -5.850415 -15.651940 13.380657 -1.107970 6.969120 -2.602818 -2.151451 5.803481 -7.732654 0.220274 -1.213987 0.000000 0.000000 0.000000 2.784590 0.971305 0.050032 0.407068 1.597065 1.634124 2.680829 1.399184 0.397405 1.189479 -1.409086 0.256343 0.000000 0.000000 0.000000 1.450796 0.925683 0.572389 3.835063 -0.628813 -2.062807 -9.195553 -7.185980 2.019521 0.000000 0.000000 0.000000 0.754632 0.945975 0.267118 0.685588 2.549333 -7.321228 -1.731492 -0.920411 0.787991 5.306931 -14.243737 -62.288381 -2.276505 -49.200537 -1.204502 0.000000 0.000000 0.000000 1.468539 1.098289 0.810371 0.793654 3.629850 11.085873 1.919621 3.129587 -1.820093 12.746625 11.235788 56.244637 0.640314 57.562505 -0.002664 0.000000 0.000000 0.000000 
-248.587112 95.470253 -13.195988 0.000000 0.000000 0.000000 2.191260 1.174021 0.493685 -13.864628 17.892551 11.588465 16.411078 -6.941333 3.155105 -2.932771 -15.696138 -1.426103 -2.290515 -0.712551 2.453448 0.000000 0.000000 0.000000 0.895973 3.084125 0.121427 -3.634727 -5.651304 -15.502813 13.434361 -0.851948 6.483701 -2.765438 -2.016986 6.591153 -7.209973 0.309612 -1.223239 0.000000 0.000000 0.000000 3.112141 0.816825 0.233515 0.173259 1.618772 1.626336 2.683348 1.564958 0.314214 1.307942 -1.539882 0.226472 0.000000 0.000000 0.000000 1.445712 1.052681 0.503613 4.079284 -0.613194 -2.051553 -9.672582 -6.984297 2.309304 0.000000 0.000000 0.000000 0.811142 1.089694 0.235495 0.573887 3.154312 -6.486364 -1.709781 -0.757142 0.907206 2.544943 -12.598337 -62.619850 -2.718779 -57.770013 -1.941563 0.000000 0.000000 0.000000 1.454753 1.236149 0.702177 0.789052 3.034795 9.892469 2.036602 3.189289 -1.505825 10.835324 10.529952 54.892676 0.513523 67.144803 -0.270984 0.000000 0.000000 0.000000 
-248.519135 95.187775 -13.752007 0.000000 0.000000 0.000000 2.753864 1.514657 0.588538 -15.847016 17.278879 11.370901 17.836819 -7.192298 3.137778 -2.562646 -15.780180 -1.277542 -2.506667 -0.906047 3.105949 0.000000 0.000000 0.000000 1.466694 3.239173 0.197331 -4.881650 -5.433349 -15.514896 14.190220 -0.452397 6.084987 -3.196155 -1.973195 7.406796 -6.436244 0.410063 -1.214363 0.000000 0.000000 0.000000 3.692469 0.703407 0.428049 0.016929 1.607024 1.547638 2.706539 1.722548 0.203089 1.289891 -1.733867 0.249955 0.000000 0.000000 0.000000 1.508524 1.164948 0.403328 4.077685 -0.596853 -1.994989 -10.374059 -6.609773 2.621031 0.000000 0.000000 0.000000 0.909175 1.206786 0.155341 0.466983 3.353453 -5.890798 -1.779446 -0.715556 1.006373 -1.429759 -11.408066 -62.856400 -3.001827 -63.702893 -2.585210 0.000000 0.000000 0.000000 1.485929 1.352929 0.569116 0.759556 2.646842 8.791180 2.102659 3.375545 -1.340862 7.691795 9.560245 53.765432 0.277590 75.522986 -0.429323 0.000000 0.000000 0.000000 
-248.453415 94.332588 -14.509022 0.000000 0.000000 0.000000 3.650513 1.971077 0.676269 -19.053617 16.531665 11.412287 20.239741 -7.620524 2.870746 -2.313833 -15.639842 -1.367089 -2.859154 -1.056358 3.667637 0.000000 0.000000 0.000000 2.464088 3.653297 0.260920 -7.271319 -5.199922 -15.717375 16.118174 0.050881 5.849336 -4.240785 -2.080148 7.961873 -5.304397 0.518994 -1.194455 0.000000 0.000000 0.000000 4.525318 0.655644 0.629461 0.007598 1.570414 1.396003 2.783926 1.877368 0.082360 1.132067 -1.986298 0.277332 0.000000 0.000000 0.000000 1.643546 1.263023 0.295218 3.706309 -0.590562 -1.912963 -11.438072 -6.160350 2.890402 0.000000 0.000000 0.000000 1.067104 1.305063 0.044129 0.392399 3.099315 -5.524264 -2.047172 -0.832918 1.001348 -6.606640 -10.851023 -62.784315 -3.014615 -66.652934 -2.914964 0.000000 0.000000 0.000000 1.581549 1.441385 0.434196 0.705284 2.612837 7.984454 2.140852 3.669453 -1.308196 3.371149 8.694534 52.618118 -0.417891 81.990451 -0.084390 0.000000 0.000000 0.000000 
-248.422852 92.795120 -15.342846 0.000000 0.000000 0.000000 4.915340 2.324363 0.785401 -23.486253 15.612358 11.708797 23.911990 -8.010607 2.432296 -2.450411 -15.063583 -1.331074 -3.085020 -1.118452 3.969034 0.000000 0.000000 0.000000 3.851667 4.211091 0.319928 -11.042385 -4.900776 -16.129111 19.745201 0.617433 5.836386 -5.896802 -2.362508 8.163258 -4.379562 0.641791 -1.171729 0.000000 0.000000 0.000000 5.669153 0.686246 0.803096 0.185087 1.533161 1.185248 2.930384 2.027697 -0.037722 0.879260 -2.077482 0.211579 0.000000 0.000000 0.000000 1.853298 1.351367 0.195009 2.947238 -0.643885 -1.831638 -12.949773 -5.746956 3.075003 0.000000 0.000000 0.000000 1.294429 1.396626 -0.068943 0.352563 2.335102 -5.317003 -2.414860 -1.152519 0.986699 -12.639986 -10.824014 -62.284802 -2.758890 -67.333958 -2.877910 0.000000 0.000000 0.000000 1.770114 1.525772 0.317046 0.636721 3.041123 7.617788 2.040046 3.913052 -1.266939 -2.003903 8.281558 51.264299 -2.696946 86.399461 1.981281 0.000000 0.000000 0.000000 
-248.427002 90.516212 -16.277885 0.000000 0.000000 0.000000 6.586942 2.590758 0.909647 -28.858516 14.557006 12.142905 28.768893 -8.217610 1.867277 -3.481324 -13.975707 -0.876343 -2.862364 -1.063368 3.931606 0.000000 0.000000 0.000000 5.604079 4.705710 0.415304 -16.204393 -4.481219 -16.714641 25.305665 1.272059 5.984268 -8.008827 -2.730858 8.045445 -3.963325 0.768479 -1.156261 0.000000 0.000000 0.000000 7.232025 0.761896 0.940257 0.534184 1.503203 0.958065 3.157016 2.161804 -0.155285 0.712065 -2.054080 0.267931 0.000000 0.000000 0.000000 2.155667 1.431187 0.115369 1.874123 -0.754042 -1.743024 -14.927993 -5.432283 3.147557 0.000000 0.000000 0.000000 1.578924 1.481655 -0.172361 0.338337 1.149302 -5.157953 -2.830483 -1.520932 0.915213 -19.126883 -10.908153 -61.364380 -2.388594 -66.798465 -2.583172 0.000000 0.000000 0.000000 2.060456 1.618420 0.227272 0.549767 3.930534 7.750977 1.864023 3.984649 -1.218461 -8.158705 8.425627 49.639974 -12.556807 88.903709 11.790278 0.000000 0.000000 0.000000 
-248.435303 87.593002 -17.233185 0.000000 0.000000 0.000000 8.704549 2.807327 1.042479 -34.821213 13.554259 12.785072 34.339715 -8.168657 1.118276 -5.727853 -12.690801 -0.130022 -2.469293 -0.931383 3.677238 0.000000 0.000000 0.000000 7.603235 4.884758 0.598615 -22.612275 -3.713053 -17.415111 32.593041 2.033724 6.200231 -10.511817 -3.117318 7.613221 -3.747680 0.896432 -1.153723 0.000000 0.000000 0.000000 9.228931 0.929651 1.046080 1.006828 1.487865 0.756019 3.439774 2.271332 -0.272690 0.749626 -2.115683 0.270317 0.000000 0.000000 0.000000 2.548254 1.501143 0.048258 0.648229 -0.940199 -1.631505 -17.256118 -5.215219 3.113571 0.000000 0.000000 0.000000 1.894594 1.557842 -0.275386 0.368197 -0.365720 -4.976826 -3.166484 -1.828175 0.858426 -25.316779 -10.789440 -60.075011 -1.980173 -66.185885 -2.177939 0.000000 0.000000 0.000000 2.421084 1.714571 0.151505 0.431852 5.188034 8.204948 1.673402 3.946082 -1.212493 -14.681956 9.143777 47.880886 -90.773726 89.739055 90.092620 0.000000 0.000000 0.000000 
